{"accessors":[{"bufferView":0,"componentType":5125,"count":390150,"max":[65535],"min":[0],"type":"SCALAR"},{"bufferView":1,"componentType":5126,"count":65536,"max":[5.0,0.28822657465934753,5.0],"min":[-5.0,-0.06001308187842369,-5.0],"type":"VEC3"},{"bufferView":2,"componentType":5126,"count":65536,"max":[0.7046587467193604,1.0,0.7044775485992432],"min":[-0.6405074596405029,0.6821232438087463,-0.6869185566902161],"type":"VEC3"},{"bufferView":3,"componentType":5126,"count":65536,"max":[0.8363017439842224,0.8363017439842224],"min":[0.16369830071926117,0.1636982560157776],"type":"VEC2"},{"bufferView":4,"componentType":5123,"count":1404,"max":[919],"min":[0],"type":"SCALAR"},{"bufferView":5,"componentType":5126,"count":920,"max":[1.0,1.0004087686538696,1.0],"min":[-1.0,-0.0020174384117126465,-1.0],"type":"VEC3"},{"bufferView":6,"componentType":5126,"count":920,"max":[0.787463366985321,1.0,0.9792537689208984],"min":[-0.9216685891151428,-1.0,-0.8466488122940063],"type":"VEC3"},{"bufferView":7,"componentType":5126,"count":920,"max":[1.0,0.0,-0.0,-1.0],"min":[1.0,0.0,-0.0,-1.0],"type":"VEC4"},{"bufferView":8,"componentType":5126,"count":920,"max":[0.0,1.0],"min":[0.0,1.0],"type":"VEC2"}],"asset":{"generator":"Verge3D for Blender","version":"2.0"},"bufferViews":[{"buffer":0,"byteLength":1560600,"byteOffset":0,"target":34963},{"buffer":0,"byteLength":786432,"byteOffset":1560600,"target":34962},{"buffer":0,"byteLength":786432,"byteOffset":2347032,"target":34962},{"buffer":0,"byteLength":524288,"byteOffset":3133464,"target":34962},{"buffer":0,"byteLength":2808,"byteOffset":3657752,"target":34963},{"buffer":0,"byteLength":11040,"byteOffset":3660560,"target":34962},{"buffer":0,"byteLength":11040,"byteOffset":3671600,"target":34962},{"buffer":0,"byteLength":14720,"byteOffset":3682640,"target":34962},{"buffer":0,"byteLength":7360,"byteOffset":3697360,"target":34962}],"buffers":[{"byteLength":3704720,"uri":"Mayan Pyramid.bin"}],"cameras":[{"extensions":{"S8S_v3d_camera":{"controls":"ORBIT","enablePan":true,"moveSpeed":1.0,"orbitMaxDistance":100.0,"orbitMaxPolarAngle":3.1415927410125732,"orbitMaxZoom":100.0,"orbitMinDistance":0.0,"orbitMinPolarAngle":0.0,"orbitMinZoom":0.009999999776482582,"orbitTarget":[0.0,0.0,-0.0],"rotateSpeed":1.0,"viewportFitInitialAspect":1.7777777777777777,"viewportFitType":"AUTO"}},"name":"Camera","perspective":{"aspectRatio":1.7777777777777777,"yfov":0.39959652046304894,"zfar":100.0,"znear":0.10000000149011612},"type":"perspective"},{"extensions":{"S8S_v3d_camera":{"controls":"ORBIT","enablePan":true,"moveSpeed":1.0,"orbitMaxDistance":100.0,"orbitMaxPolarAngle":3.1415927410125732,"orbitMaxZoom":100.0,"orbitMinDistance":0.0,"orbitMinPolarAngle":0.0,"orbitMinZoom":0.009999999776482582,"orbitTarget":[0.0,0.0,-0.0],"rotateSpeed":1.0,"viewportFitInitialAspect":1.7777777777777777,"viewportFitType":"AUTO"}},"name":"Camera.001","perspective":{"aspectRatio":1.7777777777777777,"yfov":0.39959652046304894,"zfar":100.0,"znear":0.10000000149011612},"type":"perspective"}],"extensions":{"S8S_v3d_lights":{"lights":[{"color":[1.0,1.0,1.0],"decay":2,"distance":31.622776955095866,"intensity":1000.0,"name":"Light","profile":"blender","shadow":{"bias":-0.0018,"cameraFar":31.622776955095866,"cameraFov":0,"cameraNear":0.05000000074505806,"enabled":true,"expBias":2.5,"mapSize":512,"radius":1.0,"slopeScaledBias":2.5},"type":"point"},{"color":[1.0,1.0,1.0],"intensity":25.0,"name":"Light.001","profile":"blender","shadow":{"bias":-0.0018,"cameraFar":100,"cameraFov":0,"cameraNear":0.1,"csm":{"maxDistance":1000.0},"enabled":true,"expBias":2.5,"mapSize":1024,"radius":1.0,"slopeScaledBias":2.5},"type":"directional"}]}},"extensionsUsed":["S8S_v3d_texture","S8S_v3d_materials","S8S_v3d_camera","S8S_v3d_lights","S8S_v3d_mesh","S8S_v3d_node","S8S_v3d_scene"],"images":[{"uri":"v3d_exported_image_sandstone_cracks_diff_4k.jpg.001.jpeg"},{"uri":"v3d_exported_image_sandstone_cracks_diff_4k.jpg.jpeg"},{"uri":"240_F_181614842_mXblvAPm69wGNrpfZpf2y81CuS9rF4Es.jpg"}],"materials":[{"extensions":{"S8S_v3d_materials":{"gtaoVisible":true,"materialIndex":0,"nodeGraph":{"edges":[{"fromNode":2,"fromOutput":0,"toInput":0,"toNode":9},{"fromNode":1,"fromOutput":0,"toInput":9,"toNode":2},{"fromNode":8,"fromOutput":0,"toInput":1,"toNode":7},{"fromNode":7,"fromOutput":0,"toInput":3,"toNode":3},{"fromNode":3,"fromOutput":0,"toInput":22,"toNode":2},{"fromNode":4,"fromOutput":0,"toInput":2,"toNode":3},{"fromNode":5,"fromOutput":0,"toInput":0,"toNode":4},{"fromNode":6,"fromOutput":2,"toInput":0,"toNode":5},{"fromNode":0,"fromOutput":0,"toInput":0,"toNode":2}],"nodes":[{"inputs":[[0.0,0.0,0.0]],"is_active_output":false,"name":"Environment Texture","outputs":[[0.0,0.0,0.0,0.0]],"projection":"EQUIRECTANGULAR","texture":0,"type":"TEX_ENVIRONMENT_BL"},{"alphaMode":"STRAIGHT","inputs":[[0.0,0.0,0.0]],"is_active_output":false,"name":"Image Texture.002","outputs":[[0.0,0.0,0.0,0.0],0.0],"projection":"FLAT","projectionBlend":0.0,"texture":0,"type":"TEX_IMAGE_BL"},{"inputs":[[0.800000011920929,0.800000011920929,0.800000011920929,1.0],0.0,[1.0,0.20000000298023224,0.10000000149011612],[1.0,1.0,1.0,1.0],1.399999976158142,0.0,0.0,0.5,0.0,0.5,0.0,0.0,0.0,0.5,0.0,0.029999999329447746,1.4500000476837158,0.0,0.0,[0.0,0.0,0.0,1.0],1.0,1.0,[0.0,0.0,0.0],[0.0,0.0,0.0],[0.0,0.0,0.0]],"is_active_output":false,"name":"Principled BSDF","outputs":[[0,0,0,0]],"type":"BSDF_PRINCIPLED_BL"},{"inputs":[1.0,1.0,1.0,[0.0,0.0,0.0]],"invert":false,"is_active_output":false,"name":"Bump","outputs":[[0.0,0.0,0.0]],"type":"BUMP_BL"},{"inputs":[[0.0,0.0,0.0],[1.0,1.0,1.0,1.0],[0.20000000298023224,0.20000000298023224,0.20000000298023224,1.0],[0.0,0.0,0.0,1.0],12.300000190734863,0.019999999552965164,0.10000000149011612,0.0,0.5,0.25],"is_active_output":false,"name":"Brick Texture","offset":0.5,"offsetFrequency":2,"outputs":[[0.0,0.0,0.0,0.0],0.0],"squash":1.0,"squashFrequency":2,"type":"TEX_BRICK_BL"},{"inputs":[[0.0,0.0,0.0],[0.0,0.0,0.0],[0.0,0.0,0.0],[1.0,1.0,1.0]],"is_active_output":false,"name":"Mapping","outputs":[[0.0,0.0,0.0]],"type":"MAPPING_BL","vectorType":"POINT"},{"inputs":[],"is_active_output":false,"name":"Texture Coordinate","object":-1,"outputs":[[0.0,0.0,0.0],[0.0,0.0,0.0],[0.0,0.0,0.0],[0.0,0.0,0.0],[0.0,0.0,0.0],[0.0,0.0,0.0],[0.0,0.0,0.0]],"type":"TEX_COORD_BL"},{"inputs":[1.5000001192092896,[0.5,0.5,1.0,1.0]],"is_active_output":false,"name":"Normal Map","outputs":[[0.0,0.0,0.0]],"type":"NORMAL_MAP_BL","uvLayer":""},{"alphaMode":"STRAIGHT","inputs":[[0.0,0.0,0.0]],"is_active_output":false,"name":"Image Texture.001","outputs":[[0.0,0.0,0.0,0.0],0.0],"projection":"FLAT","projectionBlend":0.0,"texture":2,"type":"TEX_IMAGE_BL"},{"inputs":[[0,0,0,0],[0,0,0,0],[0.0,0.0,0.0],0.0],"is_active_output":true,"name":"Material Output","outputs":[],"type":"OUTPUT_MATERIAL_BL"}]},"useCastShadows":true}},"name":"Material.001"},{"extensions":{"S8S_v3d_materials":{"gtaoVisible":true,"materialIndex":0,"nodeGraph":{"edges":[{"fromNode":0,"fromOutput":0,"toInput":0,"toNode":1},{"fromNode":3,"fromOutput":1,"toInput":0,"toNode":2},{"fromNode":2,"fromOutput":0,"toInput":0,"toNode":0},{"fromNode":4,"fromOutput":0,"toInput":0,"toNode":3},{"fromNode":7,"fromOutput":2,"toInput":0,"toNode":4},{"fromNode":5,"fromOutput":0,"toInput":0,"toNode":9},{"fromNode":6,"fromOutput":2,"toInput":0,"toNode":5},{"fromNode":9,"fromOutput":1,"toInput":2,"toNode":8},{"fromNode":8,"fromOutput":0,"toInput":22,"toNode":0}],"nodes":[{"inputs":[[0.800000011920929,0.800000011920929,0.800000011920929,1.0],0.0,[1.0,0.20000000298023224,0.10000000149011612],[0.800000011920929,0.800000011920929,0.800000011920929,1.0],1.399999976158142,0.0,0.0,0.5,0.0,0.5,0.0,0.0,0.0,0.5,0.0,0.029999999329447746,1.4500000476837158,0.0,0.0,[0.0,0.0,0.0,1.0],1.0,1.0,[0.0,0.0,0.0],[0.0,0.0,0.0],[0.0,0.0,0.0]],"is_active_output":false,"name":"Principled BSDF","outputs":[[0,0,0,0]],"type":"BSDF_PRINCIPLED_BL"},{"inputs":[[0,0,0,0],[0,0,0,0],[0.0,0.0,0.0],0.0],"is_active_output":true,"name":"Material Output","outputs":[],"type":"OUTPUT_MATERIAL_BL"},{"curve":{"input":[0.0,1.0],"interpolation":"LINEAR","output":[0.0,0.0,0.0,1.0,0.73735511302948,0.37791186571121216,0.08392114192247391,1.0]},"inputs":[0.5],"is_active_output":false,"name":"Color Ramp","outputs":[[0.0,0.0,0.0,0.0],0.0],"type":"VALTORGB_BL"},{"dispersionFactor":1.0,"falloffFactor":0.0,"inputs":[[0.0,0.0,0.0],0.0,5.0,2.0,0.5,0.0],"is_active_output":false,"name":"Noise Texture","outputs":[0.0,[0.0,0.0,0.0,0.0]],"type":"TEX_NOISE_BL"},{"inputs":[[0.0,0.0,0.0],[0.0,0.0,0.0],[0.0,0.0,0.0],[1.0,1.0,1.0]],"is_active_output":false,"name":"Mapping","outputs":[[0.0,0.0,0.0]],"type":"MAPPING_BL","vectorType":"POINT"},{"inputs":[[0.0,0.0,0.0],[0.0,0.0,0.0],[0.0,0.0,0.0],[1.0,1.0,1.0]],"is_active_output":false,"name":"Mapping.001","outputs":[[0.0,0.0,0.0]],"type":"MAPPING_BL","vectorType":"POINT"},{"inputs":[],"is_active_output":false,"name":"Texture Coordinate.001","object":-1,"outputs":[[0.0,0.0,0.0],[0.0,0.0,0.0],[0.0,0.0,0.0],[0.0,0.0,0.0],[0.0,0.0,0.0],[0.0,0.0,0.0],[0.0,0.0,0.0]],"type":"TEX_COORD_BL"},{"inputs":[],"is_active_output":false,"name":"Texture Coordinate","object":-1,"outputs":[[0.0,0.0,0.0],[0.0,0.0,0.0],[0.0,0.0,0.0],[0.0,0.0,0.0],[0.0,0.0,0.0],[0.0,0.0,0.0],[0.0,0.0,0.0]],"type":"TEX_COORD_BL"},{"inputs":[1.0,1.0,1.0,[0.0,0.0,0.0]],"invert":false,"is_active_output":false,"name":"Bump","outputs":[[0.0,0.0,0.0]],"type":"BUMP_BL"},{"dispersionFactor":1.0,"falloffFactor":0.0,"inputs":[[0.0,0.0,0.0],0.0,5.0,2.0,0.5,0.0],"is_active_output":false,"name":"Noise Texture.001","outputs":[0.0,[0.0,0.0,0.0,0.0]],"type":"TEX_NOISE_BL"}]},"useCastShadows":true}},"name":"Material.002"},{"extensions":{"S8S_v3d_materials":{"gtaoVisible":true,"materialIndex":0,"nodeGraph":{"edges":[{"fromNode":0,"fromOutput":0,"toInput":0,"toNode":1}],"nodes":[{"inputs":[[0.8000000715255737,0.7081659436225891,0.730897068977356,1.0],0.0,[1.0,0.20000000298023224,0.10000000149011612],[0.800000011920929,0.800000011920929,0.800000011920929,1.0],1.399999976158142,0.0,0.0,0.5,0.0,0.5,0.0,0.0,0.0,0.5,0.0,0.029999999329447746,1.4500000476837158,0.0,0.0,[0.0,0.0,0.0,1.0],1.0,1.0,[0.0,0.0,0.0],[0.0,0.0,0.0],[0.0,0.0,0.0]],"is_active_output":false,"name":"Principled BSDF","outputs":[[0,0,0,0]],"type":"BSDF_PRINCIPLED_BL"},{"inputs":[[0,0,0,0],[0,0,0,0],[0.0,0.0,0.0],0.0],"is_active_output":true,"name":"Material Output","outputs":[],"type":"OUTPUT_MATERIAL_BL"}]},"useCastShadows":true}},"name":"Material.003"},{"extensions":{"S8S_v3d_materials":{"gtaoVisible":true,"materialIndex":0,"nodeGraph":{"edges":[{"fromNode":1,"fromOutput":0,"toInput":0,"toNode":0},{"fromNode":2,"fromOutput":0,"toInput":0,"toNode":1}],"nodes":[{"inputs":[[0,0,0,0],[0,0,0,0]],"is_active_output":true,"name":"World Output","outputs":[],"type":"OUTPUT_WORLD_BL"},{"inputs":[[0.05087608844041824,0.05087608844041824,0.05087608844041824,1.0],1.0],"is_active_output":false,"name":"Background","outputs":[[0,0,0,0]],"type":"BACKGROUND_BL"},{"inputs":[[0.0,0.0,0.0]],"is_active_output":false,"name":"Environment Texture","outputs":[[0.0,0.0,0.0,0.0]],"projection":"EQUIRECTANGULAR","texture":3,"type":"TEX_ENVIRONMENT_BL"}]},"useCastShadows":true}},"name":"Verge3D_Environment_World"}],"meshes":[{"extensions":{"S8S_v3d_mesh":{"colorLayers":{},"uvLayers":{"UVMap":"TEXCOORD_0"}}},"name":"Landscape.001","primitives":[{"attributes":{"NORMAL":2,"POSITION":1,"TEXCOORD_0":3},"indices":0,"material":1,"mode":4}]},{"extensions":{"S8S_v3d_mesh":{"colorLayers":{},"uvLayers":{"UVMap":"TEXCOORD_0"}}},"name":"Pyramid","primitives":[{"attributes":{"NORMAL":6,"POSITION":5,"TANGENT":7,"TEXCOORD_0":8},"indices":4,"material":0,"mode":4}]}],"nodes":[{"extensions":{"S8S_v3d_lights":{"light":1},"S8S_v3d_node":{"frustumCulling":true,"groupNames":["Collection"],"hidden":false,"hidpiCompositing":false,"objectColor":[0.0,0.0,0.0,0.0],"objectIndex":0,"renderOrder":0}},"name":"Light.001","rotation":[-0.9160804152488708,-0.002614289755001664,-0.34413450956344604,0.20581848919391632],"scale":[4.5978240966796875,2.382451057434082,4.6823225021362305],"translation":[1.248210072517395,2.9480836391448975,-2.946674108505249]},{"extensions":{"S8S_v3d_lights":{"light":0},"S8S_v3d_node":{"frustumCulling":true,"groupNames":["Collection"],"hidden":false,"hidpiCompositing":false,"objectColor":[0.0,0.0,0.0,0.0],"objectIndex":0,"renderOrder":0}},"name":"Light","rotation":[-0.28416627645492554,0.7269423007965088,0.34203392267227173,0.5232754945755005],"scale":[1.0,0.9999998807907104,0.9999998807907104],"translation":[4.076245307922363,5.903861999511719,-1.0054539442062378]},{"camera":1,"extensions":{"S8S_v3d_node":{"frustumCulling":true,"groupNames":["Collection"],"hidden":false,"hidpiCompositing":false,"objectColor":[0.0,0.0,0.0,0.0],"objectIndex":0,"renderOrder":0}},"name":"Camera.001","rotation":[-0.20997299253940582,0.3857799470424652,0.09062844514846802,0.8937962055206299],"scale":[1.0,0.9999998807907104,0.9999998807907104],"translation":[7.358891487121582,4.958309173583984,6.925790786743164]},{"camera":0,"extensions":{"S8S_v3d_node":{"frustumCulling":true,"groupNames":["Collection"],"hidden":false,"hidpiCompositing":false,"objectColor":[0.0,0.0,0.0,0.0],"objectIndex":0,"renderOrder":0}},"name":"Camera","rotation":[-0.20997299253940582,0.3857799470424652,0.09062844514846802,0.8937962055206299],"scale":[1.0,0.9999998807907104,0.9999998807907104],"translation":[7.358891487121582,4.958309173583984,6.925790786743164]},{"extensions":{"S8S_v3d_node":{"frustumCulling":true,"groupNames":["Collection"],"hidden":false,"hidpiCompositing":false,"objectColor":[1.0,1.0,1.0,1.0],"objectIndex":0,"renderOrder":0,"useShadows":true}},"mesh":0,"name":"Landscape.001","scale":[0.8275197148323059,0.4506147801876068,0.7853835821151733],"translation":[0.0,-0.029551131650805473,-0.0]},{"extensions":{"S8S_v3d_node":{"frustumCulling":true,"groupNames":["Collection"],"hidden":false,"hidpiCompositing":false,"objectColor":[1.0,1.0,1.0,1.0],"objectIndex":0,"renderOrder":0,"useShadows":true}},"mesh":1,"name":"Pyramid","rotation":[-0.008843130432069302,0.9257394671440125,0.00805120449513197,0.3779727816581726],"scale":[0.9999999403953552,1.0,0.9999999403953552]}],"samplers":[{}],"scene":0,"scenes":[{"extensions":{"S8S_v3d_scene":{"aaMethod":"AUTO","iblEnvironmentMode":"PMREM","physicallyCorrectLights":true,"pmremMaxTileSize":512,"shadowMap":{"esmDistanceScale":1.0,"renderReverseSided":false,"renderSingleSided":true,"type":"PCFPOISSON"},"toneMapping":{"type":"filmicBlender"},"worldMaterial":3}},"extras":{"animFrameRate":24,"coordSystem":"Z_UP_RIGHT"},"name":"Scene","nodes":[1,3,2,4,0,5]}],"textures":[{"extensions":{"S8S_v3d_texture":{"colorSpace":"srgb"}},"name":"sandstone_cracks_diff_4k.jpg.001","sampler":0,"source":0},{"extensions":{"S8S_v3d_texture":{"colorSpace":"srgb"}},"name":"sandstone_cracks_diff_4k.jpg.001","sampler":0,"source":0},{"extensions":{"S8S_v3d_texture":{"colorSpace":"srgb"}},"name":"sandstone_cracks_diff_4k.jpg","sampler":0,"source":1},{"extensions":{"S8S_v3d_texture":{"colorSpace":"srgb"}},"name":"240_F_181614842_mXblvAPm69wGNrpfZpf2y81CuS9rF4Es.jpg.001","sampler":0,"source":2}]}
